<?xml version="1.0" encoding="iso-8859-1"?>
<!-- Uploaded to: SVG Repo, www.svgrepo.com, Generator: SVG Repo Mixer Tools -->
<!DOCTYPE svg PUBLIC "-//W3C//DTD SVG 1.1//EN" "http://www.w3.org/Graphics/SVG/1.1/DTD/svg11.dtd">
<svg fill="#000000" version="1.1" id="Capa_1" xmlns="http://www.w3.org/2000/svg" xmlns:xlink="http://www.w3.org/1999/xlink" 
	 width="800px" height="800px" viewBox="0 0 78.66 78.66" xml:space="preserve"
	>
<g>
	<path d="M36.317,28.258c-2.688-4.703-1.12-10.752,3.584-13.438c4.704-2.688,10.752-1.12,13.439,3.584
		c2.688,4.705,1.121,10.752-3.584,13.438C45.277,34.532,39.229,32.963,36.317,28.258z M31.388,66.34
		c-1.568,0.223-6.048,1.119-9.408,1.568c-3.36,0.448-6.272-1.568-6.944-3.359c-0.672-1.793,1.12-4.929,0.448-5.824
		s-3.36-3.808-2.464-6.271c0.896-2.239,0.448-3.584,0.448-3.584s-4.928-0.896-5.376-2.688c-0.448-1.793,6.72-12.993,6.72-12.993
		s-1.344-2.911-1.792-4.256c-0.448-1.568,0-9.186,4.704-18.146S33.18-1.309,47.517,0.483c14.336,1.792,22.85,16.352,22.85,25.088
		c0.223,17.472-12.097,25.313-12.32,31.583C57.82,68.354,70.588,78.66,70.588,78.66H26.685C26.685,78.66,34.974,74.628,31.388,66.34
		z M58.046,40.356l-4.928,2.912c0.896,1.344,2.688,2.016,4.03,1.119C58.494,43.492,58.941,41.7,58.046,40.356z M57.599,39.459
		l-3.809-6.72l-4.93,2.912l3.809,6.721L57.599,39.459z M34.749,29.156c3.136,5.6,10.305,7.391,15.904,4.256
		c5.6-3.135,7.394-10.303,4.257-15.904c-3.137-5.6-10.305-7.392-15.905-4.256C33.629,16.388,31.613,23.556,34.749,29.156z"/>
</g>
</svg>