<?xml version="1.0" encoding="UTF-8"?>
<!DOCTYPE svg PUBLIC "-//W3C//DTD SVG 1.1//EN" "http://www.w3.org/Graphics/SVG/1.1/DTD/svg11.dtd">
<svg xmlns="http://www.w3.org/2000/svg" version="1.1" width="500px" height="500px" style="shape-rendering:geometricPrecision; text-rendering:geometricPrecision; image-rendering:optimizeQuality; fill-rule:evenodd; clip-rule:evenodd" xmlns:xlink="http://www.w3.org/1999/xlink">
<g><path style="opacity:1" fill="#dae7fd" d="M -0.5,-0.5 C 166.167,-0.5 332.833,-0.5 499.5,-0.5C 499.5,166.167 499.5,332.833 499.5,499.5C 332.833,499.5 166.167,499.5 -0.5,499.5C -0.5,332.833 -0.5,166.167 -0.5,-0.5 Z"/></g>
<g><path style="opacity:1" fill="#243e8c" d="M 304.5,131.5 C 304.783,132.289 305.283,132.956 306,133.5C 306.83,108.997 306.663,84.6632 305.5,60.5C 299,57.1631 296.5,51.8297 298,44.5C 302.537,35.3226 309.371,33.1559 318.5,38C 324.043,43.5099 324.876,49.6766 321,56.5C 319.587,58.4136 317.753,59.7469 315.5,60.5C 314.167,68.8333 314.167,77.1667 315.5,85.5C 321.5,81.5 327.5,77.5 333.5,73.5C 332.486,57.6743 339.486,52.1743 354.5,57C 361.277,64.5899 360.944,71.9232 353.5,79C 348.543,80.6638 343.543,80.9971 338.5,80C 330.667,85.1667 322.833,90.3333 315,95.5C 314.333,111.833 314.333,128.167 315,144.5C 322.295,153.464 329.962,162.13 338,170.5C 339.21,164.78 340.543,159.113 342,153.5C 346.333,149.5 350.667,145.5 355,141.5C 355.667,133.5 355.667,125.5 355,117.5C 344.78,110.63 343.946,102.796 352.5,94C 369.583,90.416 375.416,96.916 370,113.5C 368.255,114.956 366.422,116.289 364.5,117.5C 363.167,122.833 363.167,128.167 364.5,133.5C 372.686,126.146 381.019,118.98 389.5,112C 385.63,103.403 387.964,97.0694 396.5,93C 409.232,92.0649 414.732,97.8983 413,110.5C 408.75,117.695 402.584,120.195 394.5,118C 379.427,131.285 364.26,144.451 349,157.5C 345.218,175.069 342.218,192.736 340,210.5C 360.8,192.035 381.3,173.202 401.5,154C 409.853,153.832 418.187,153.332 426.5,152.5C 431.556,144.011 438.556,142.177 447.5,147C 451.342,151.439 452.509,156.605 451,162.5C 442.632,173.309 434.465,173.142 426.5,162C 419.5,161.333 412.5,161.333 405.5,162C 395.904,170.283 386.571,178.783 377.5,187.5C 376.711,187.783 376.044,188.283 375.5,189C 383.677,189.823 391.677,189.656 399.5,188.5C 403.216,180.93 409.216,178.43 417.5,181C 427.358,187.828 428.025,195.495 419.5,204C 410.95,208.396 404.284,206.396 399.5,198C 388.167,197.333 376.833,197.333 365.5,198C 356,206.833 346.5,215.667 337,224.5C 334.182,237.784 331.682,251.118 329.5,264.5C 333.599,264.858 337.599,264.858 341.5,264.5C 345.956,258.421 350.29,252.254 354.5,246C 363.5,245.667 372.5,245.333 381.5,245C 388.5,237.333 395.5,229.667 402.5,222C 418.177,221.833 433.844,221.333 449.5,220.5C 454.833,211.757 461.833,210.257 470.5,216C 475.16,221.451 475.66,227.284 472,233.5C 464.34,240.464 457.007,240.131 450,232.5C 449.517,231.552 449.351,230.552 449.5,229.5C 435.163,229.333 420.829,229.5 406.5,230C 402.399,234.857 398.066,239.524 393.5,244C 401.5,244.333 409.5,244.667 417.5,245C 424.167,251 430.833,257 437.5,263C 441.541,263.827 445.541,263.66 449.5,262.5C 452.877,255.899 458.211,253.732 465.5,256C 476.216,262.345 477.216,270.012 468.5,279C 459.455,283.478 452.788,281.144 448.5,272C 443.833,271.667 439.167,271.333 434.5,271C 427.833,265 421.167,259 414.5,253C 395.833,252.869 377.166,253.202 358.5,254C 355.08,259.507 351.414,264.841 347.5,270C 351.242,274.517 352.409,279.684 351,285.5C 344.877,298.955 334.877,308.289 321,313.5C 317.707,327.413 310.374,338.746 299,347.5C 300.991,363.139 305.991,377.805 314,391.5C 321.785,401.154 331.618,407.987 343.5,412C 355.901,416.068 368.568,419.068 381.5,421C 383.396,422.808 383.896,424.975 383,427.5C 320.832,475.13 252.332,486.964 177.5,463C 154.226,454.287 133.06,442.12 114,426.5C 113.464,424.433 113.964,422.599 115.5,421C 134.935,418.848 153.269,413.181 170.5,404C 181.391,396.081 188.891,385.581 193,372.5C 194.667,366.833 196.333,361.167 198,355.5C 198.667,352.833 198.667,350.167 198,347.5C 187.286,338.455 180.286,327.121 177,313.5C 166.148,308.904 157.148,301.904 150,292.5C 145.323,284.568 145.49,276.901 150.5,269.5C 147.415,264.328 144.081,259.328 140.5,254.5C 121.848,253.202 103.181,252.702 84.5,253C 77.8333,259 71.1667,265 64.5,271C 59.8333,271.333 55.1667,271.667 50.5,272C 46.1426,280.897 39.4759,283.23 30.5,279C 21.7844,270.012 22.7844,262.345 33.5,256C 40.8533,254.446 46.52,256.78 50.5,263C 54.1667,263.667 57.8333,263.667 61.5,263C 68.1667,257 74.8333,251 81.5,245C 89.5,244.667 97.5,244.333 105.5,244C 100.934,239.524 96.601,234.857 92.5,230C 78.1551,229.167 63.8217,229.334 49.5,230.5C 45.9493,237.525 40.2826,240.025 32.5,238C 23.2675,231.374 22.2675,223.708 29.5,215C 36.8946,211.057 43.3946,212.224 49,218.5C 49.4828,219.448 49.6495,220.448 49.5,221.5C 65.1702,221.333 80.8369,221.5 96.5,222C 103.5,229.667 110.5,237.333 117.5,245C 126.5,245.333 135.5,245.667 144.5,246C 149.078,251.823 153.412,257.823 157.5,264C 160.849,264.388 164.183,264.221 167.5,263.5C 165.754,250.114 163.587,236.781 161,223.5C 151.5,214.667 142,205.833 132.5,197C 121.5,196.333 110.5,196.333 99.5,197C 95.7825,204.521 89.7825,207.188 81.5,205C 74.8625,200.983 72.6958,195.15 75,187.5C 83.331,176.734 91.4977,176.901 99.5,188C 107.167,188.667 114.833,188.667 122.5,188C 113.5,179.667 104.5,171.333 95.5,163C 87.9391,161.402 80.2724,161.069 72.5,162C 67.6407,170.219 60.974,172.219 52.5,168C 47.7409,163.509 46.2409,158.009 48,151.5C 51.6551,144.93 57.1551,142.763 64.5,145C 68.3011,146.301 70.9678,148.801 72.5,152.5C 80.8134,153.332 89.1468,153.832 97.5,154C 117.382,172.85 137.549,191.35 158,209.5C 155.378,191.82 152.378,174.153 149,156.5C 134.167,143.667 119.333,130.833 104.5,118C 91.449,120.284 85.2824,114.784 86,101.5C 90.6624,92.7243 97.4958,90.5576 106.5,95C 111.27,99.9753 112.77,105.809 111,112.5C 118.371,119.375 125.871,126.041 133.5,132.5C 133.56,133.043 133.893,133.376 134.5,133.5C 135.815,128.014 135.815,122.68 134.5,117.5C 127.681,113.854 125.181,108.187 127,100.5C 131.429,92.5431 137.929,90.3764 146.5,94C 155.016,102.72 154.182,110.553 144,117.5C 143.333,125.5 143.333,133.5 144,141.5C 148.3,144.798 152.3,148.465 156,152.5C 157.714,158.786 159.214,165.119 160.5,171.5C 168.52,162.648 176.353,153.648 184,144.5C 184.667,128.167 184.667,111.833 184,95.5C 176.167,90.3333 168.333,85.1667 160.5,80C 151.102,82.9849 144.269,80.1515 140,71.5C 139.714,56.7208 146.547,51.8874 160.5,57C 165.398,61.1895 166.731,66.3562 164.5,72.5C 170.689,77.0904 177.022,81.4237 183.5,85.5C 183.56,86.0431 183.893,86.3764 184.5,86.5C 185.821,78.0091 185.821,69.6758 184.5,61.5C 176.625,57.3861 174.125,51.0527 177,42.5C 182.113,35.1294 188.613,33.6294 196.5,38C 201.72,42.9162 202.887,48.7496 200,55.5C 198.114,58.242 195.614,59.9087 192.5,60.5C 192.333,84.8356 192.5,109.169 193,133.5C 198.5,126.667 204,119.833 209.5,113C 203.731,101.702 207.064,94.5352 219.5,91.5C 233.266,95.0868 236.266,102.92 228.5,115C 224.381,116.851 220.048,118.018 215.5,118.5C 199.648,139.86 182.481,160.193 164,179.5C 163.042,181.199 162.542,183.033 162.5,185C 164.987,200.62 167.987,216.12 171.5,231.5C 184.476,221.691 197.31,211.691 210,201.5C 211.484,191.537 212.151,181.537 212,171.5C 203.68,164.115 203.513,156.615 211.5,149C 228.583,145.416 234.416,151.916 229,168.5C 226.674,171.011 223.841,172.344 220.5,172.5C 220.059,179.507 219.892,186.507 220,193.5C 231.621,184.881 242.955,175.881 254,166.5C 251.842,153.33 257.342,147.163 270.5,148C 278.499,151.167 281.333,157.001 279,165.5C 274.794,172.348 268.794,174.681 261,172.5C 231.701,194.962 202.535,217.628 173.5,240.5C 173.167,241.167 172.833,241.833 172.5,242.5C 176.879,269.012 182.046,295.345 188,321.5C 192.319,329.827 198.152,336.993 205.5,343C 215.66,352.16 226.66,360.16 238.5,367C 250.672,370.033 261.672,367.699 271.5,360C 282.258,351.913 292.424,343.08 302,333.5C 305.163,329.844 307.829,325.844 310,321.5C 315.767,295.3 320.934,268.967 325.5,242.5C 324.455,240.795 323.122,239.295 321.5,238C 308.215,228.383 295.215,218.383 282.5,208C 281.271,207.219 279.938,206.719 278.5,206.5C 265.356,208.525 259.523,202.858 261,189.5C 265.476,181.545 271.976,179.378 280.5,183C 286.252,187.569 288.085,193.403 286,200.5C 299.23,211.197 312.73,221.53 326.5,231.5C 330.341,215.132 333.675,198.632 336.5,182C 306.075,146.312 276.241,110.145 247,73.5C 245.73,65.6033 245.063,57.6033 245,49.5C 235.876,43.815 234.209,36.4817 240,27.5C 246.267,23.5495 252.601,23.5495 259,27.5C 264.786,36.5703 263.119,43.9036 254,49.5C 253.333,56.1667 253.333,62.8333 254,69.5C 271.081,90.0138 287.914,110.68 304.5,131.5 Z"/></g>
<g><path style="opacity:1" fill="#d2e0f8" d="M 246.5,32.5 C 253.997,31.8038 255.997,34.6372 252.5,41C 244.749,42.0913 242.749,39.258 246.5,32.5 Z"/></g>
<g><path style="opacity:1" fill="#cfdcf6" d="M 186.5,43.5 C 193.341,44.0158 195.007,47.1825 191.5,53C 183.408,53.0901 181.741,49.9235 186.5,43.5 Z"/></g>
<g><path style="opacity:1" fill="#cfddf7" d="M 308.5,43.5 C 315.238,44.0611 316.905,47.2278 313.5,53C 308.932,54.6505 306.266,53.1505 305.5,48.5C 306.092,46.5775 307.092,44.9108 308.5,43.5 Z"/></g>
<g><path style="opacity:1" fill="#4c64a6" d="M 184.5,61.5 C 185.821,69.6758 185.821,78.0091 184.5,86.5C 183.893,86.3764 183.56,86.0431 183.5,85.5C 184.492,77.6841 184.826,69.6841 184.5,61.5 Z"/></g>
<g><path style="opacity:1" fill="#aabadf" d="M 305.5,60.5 C 306.663,84.6632 306.83,108.997 306,133.5C 305.283,132.956 304.783,132.289 304.5,131.5C 305.498,108.006 305.831,84.3392 305.5,60.5 Z"/></g>
<g><path style="opacity:1" fill="#d0def7" d="M 150.5,62.5 C 157.238,63.0611 158.905,66.2278 155.5,72C 147.349,72.1978 145.683,69.0311 150.5,62.5 Z"/></g>
<g><path style="opacity:1" fill="#cfdcf6" d="M 344.5,62.5 C 349.325,62.4881 351.491,64.8214 351,69.5C 348.339,72.9661 345.339,73.2994 342,70.5C 341.018,67.2253 341.851,64.5586 344.5,62.5 Z"/></g>
<g><path style="opacity:1" fill="#cddbf5" d="M 136.5,100.5 C 143.997,99.8038 145.997,102.637 142.5,109C 139.49,111.222 136.99,110.722 135,107.5C 134.167,104.829 134.667,102.496 136.5,100.5 Z"/></g>
<g><path style="opacity:1" fill="#d0def7" d="M 216.5,100.5 C 223.997,99.8038 225.997,102.637 222.5,109C 214.749,110.091 212.749,107.258 216.5,100.5 Z"/></g>
<g><path style="opacity:1" fill="#cfddf6" d="M 356.5,100.5 C 363.997,99.8038 365.997,102.637 362.5,109C 359.49,111.222 356.99,110.722 355,107.5C 354.391,104.935 354.891,102.601 356.5,100.5 Z"/></g>
<g><path style="opacity:1" fill="#d0def7" d="M 96.5,100.5 C 103.821,101.319 105.154,104.486 100.5,110C 95,111.167 92.8333,109 94,103.5C 94.6979,102.309 95.5313,101.309 96.5,100.5 Z"/></g>
<g><path style="opacity:1" fill="#d0ddf7" d="M 398.5,100.5 C 405.297,101.107 406.964,104.274 403.5,110C 395.408,110.09 393.741,106.923 398.5,100.5 Z"/></g>
<g><path style="opacity:1" fill="#a8b8de" d="M 134.5,117.5 C 135.815,122.68 135.815,128.014 134.5,133.5C 133.893,133.376 133.56,133.043 133.5,132.5C 134.487,127.695 134.821,122.695 134.5,117.5 Z"/></g>
<g><path style="opacity:1" fill="#d0def7" d="M 57.5,152.5 C 63.9889,152.156 65.9889,154.99 63.5,161C 57.1475,163.399 54.6475,161.232 56,154.5C 56.7172,153.956 57.2172,153.289 57.5,152.5 Z"/></g>
<g><path style="opacity:1" fill="#d1dff8" d="M 436.5,152.5 C 442.989,152.156 444.989,154.99 442.5,161C 436.148,163.399 433.648,161.232 435,154.5C 435.717,153.956 436.217,153.289 436.5,152.5 Z"/></g>
<g><path style="opacity:1" fill="#d3e0f9" d="M 215.5,155.5 C 222.997,154.804 224.997,157.637 221.5,164C 214.215,164.934 212.215,162.101 215.5,155.5 Z"/></g>
<g><path style="opacity:1" fill="#cedcf6" d="M 264.5,155.5 C 270.989,155.156 272.989,157.99 270.5,164C 264.744,166.569 261.911,164.736 262,158.5C 263.045,157.627 263.878,156.627 264.5,155.5 Z"/></g>
<g><path style="opacity:1" fill="#cedcf6" d="M 85.5,187.5 C 90.3306,187.494 92.4973,189.827 92,194.5C 89.2935,197.978 86.2935,198.311 83,195.5C 81.8366,192.029 82.6699,189.362 85.5,187.5 Z"/></g>
<g><path style="opacity:1" fill="#7c90c3" d="M 377.5,187.5 C 384.648,188.492 391.981,188.825 399.5,188.5C 391.677,189.656 383.677,189.823 375.5,189C 376.044,188.283 376.711,187.783 377.5,187.5 Z"/></g>
<g><path style="opacity:1" fill="#d3e0f9" d="M 410.5,187.5 C 416.758,188.477 418.091,191.644 414.5,197C 409,198.167 406.833,196 408,190.5C 408.698,189.309 409.531,188.309 410.5,187.5 Z"/></g>
<g><path style="opacity:1" fill="#cfddf7" d="M 271.5,189.5 C 279.045,190.062 280.378,193.229 275.5,199C 268.075,198.484 266.742,195.318 271.5,189.5 Z"/></g>
<g><path style="opacity:1" fill="#d2dff8" d="M 35.5,220.5 C 40.6646,220.162 42.8313,222.495 42,227.5C 39.0485,231.482 36.0485,231.482 33,227.5C 32.3333,226.167 32.3333,224.833 33,223.5C 34.045,222.627 34.8783,221.627 35.5,220.5 Z"/></g>
<g><path style="opacity:1" fill="#d2e0f8" d="M 459.5,220.5 C 466.821,221.319 468.154,224.486 463.5,230C 458.333,230.833 456.167,228.667 457,223.5C 457.698,222.309 458.531,221.309 459.5,220.5 Z"/></g>
<g><path style="opacity:1" fill="#253e8d" d="M 243.5,284.5 C 243.5,292.5 243.5,300.5 243.5,308.5C 248.833,308.5 254.167,308.5 259.5,308.5C 261.722,308.559 262.722,309.725 262.5,312C 262.561,313.711 261.894,315.044 260.5,316C 253.167,316.667 245.833,316.667 238.5,316C 237.667,315.167 236.833,314.333 236,313.5C 235.667,299.167 235.333,284.833 235,270.5C 232.833,265.667 229.333,262.167 224.5,260C 212.258,259.823 200.091,259.323 188,258.5C 187.104,255.975 187.604,253.808 189.5,252C 201.167,251.333 212.833,251.333 224.5,252C 239.781,257.477 246.115,268.31 243.5,284.5 Z"/></g>
<g><path style="opacity:1" fill="#253f8d" d="M 271.5,251.5 C 283.838,251.333 296.171,251.5 308.5,252C 311.167,254.333 311.167,256.667 308.5,259C 296.833,259.333 285.167,259.667 273.5,260C 268.35,263.156 263.85,266.989 260,271.5C 256.169,269.362 255.503,266.362 258,262.5C 261.819,257.833 266.319,254.166 271.5,251.5 Z"/></g>
<g><path style="opacity:1" fill="#d7e4fb" d="M 34.5,263.5 C 41.9974,262.804 43.9974,265.637 40.5,272C 33.7813,272.726 31.7813,269.893 34.5,263.5 Z"/></g>
<g><path style="opacity:1" fill="#d8e5fc" d="M 458.5,263.5 C 465.472,263.279 467.138,266.113 463.5,272C 456.416,272.475 454.749,269.642 458.5,263.5 Z"/></g>
<g><path style="opacity:1" fill="#d5e3fa" d="M 159.5,272.5 C 163.167,272.5 166.833,272.5 170.5,272.5C 171.614,281.183 172.947,289.85 174.5,298.5C 174.167,299.833 173.833,301.167 173.5,302.5C 166.191,298.358 160.358,292.691 156,285.5C 153.142,279.904 154.309,275.571 159.5,272.5 Z"/></g>
<g><path style="opacity:1" fill="#d5e2fa" d="M 327.5,272.5 C 342.503,270.641 346.67,276.307 340,289.5C 335.565,294.774 330.398,299.107 324.5,302.5C 324.167,301.167 323.833,299.833 323.5,298.5C 325.16,289.886 326.493,281.22 327.5,272.5 Z"/></g>
<g><path style="opacity:1" fill="#233d8c" d="M 187.5,276.5 C 192.209,277.994 196.876,279.828 201.5,282C 210.034,282.962 218.367,282.129 226.5,279.5C 229.255,279.09 230.588,280.256 230.5,283C 230.561,284.711 229.894,286.044 228.5,287C 214.27,292.541 200.603,291.541 187.5,284C 184.914,281.506 184.914,279.006 187.5,276.5 Z"/></g>
<g><path style="opacity:1" fill="#243e8c" d="M 306.5,276.5 C 311.675,275.507 313.509,277.507 312,282.5C 302.003,289.789 290.837,292.289 278.5,290C 274.645,289.236 271.145,287.736 268,285.5C 267.257,283.559 267.424,281.726 268.5,280C 272.316,279.599 275.983,280.266 279.5,282C 289.44,283.925 298.44,282.092 306.5,276.5 Z"/></g>
<g><path style="opacity:1" fill="#7b8fc3" d="M 243.5,284.5 C 244.492,291.982 244.825,299.648 244.5,307.5C 249.695,307.179 254.695,307.513 259.5,308.5C 254.167,308.5 248.833,308.5 243.5,308.5C 243.5,300.5 243.5,292.5 243.5,284.5 Z"/></g>
<g><path style="opacity:1" fill="#223d8c" d="M 154.5,309.5 C 168.026,309.183 173.193,315.516 170,328.5C 164.879,335.712 158.379,337.212 150.5,333C 142.872,323.55 144.206,315.717 154.5,309.5 Z"/></g>
<g><path style="opacity:1" fill="#d1dff8" d="M 156.5,317.5 C 163.803,318.267 165.136,321.433 160.5,327C 155.333,327.833 153.167,325.667 154,320.5C 154.698,319.309 155.531,318.309 156.5,317.5 Z"/></g>
<g><path style="opacity:1" fill="#243e8d" d="M 238.5,323.5 C 242.343,323.393 245.843,324.393 249,326.5C 252.069,323.904 255.569,323.071 259.5,324C 263.993,326.079 268.326,328.412 272.5,331C 274.65,336.175 272.983,338.508 267.5,338C 264.52,335.025 261.02,332.859 257,331.5C 254.663,333.333 251.997,334.333 249,334.5C 245.926,333.207 242.759,332.373 239.5,332C 237.939,332.941 236.605,334.108 235.5,335.5C 240.149,341.321 246.149,343.488 253.5,342C 256.505,340.83 259.505,339.664 262.5,338.5C 266.835,340.007 267.502,342.507 264.5,346C 247.352,354.761 234.019,350.761 224.5,334C 225.101,332.395 226.101,331.062 227.5,330C 231.23,327.807 234.897,325.64 238.5,323.5 Z"/></g>
<g><path style="opacity:1" fill="#d9e6fd" d="M 206.5,354.5 C 215.28,361.729 224.614,368.229 234.5,374C 249.37,378.53 263.037,376.197 275.5,367C 280.377,362.454 285.544,358.287 291,354.5C 294.612,370.676 300.946,385.676 310,399.5C 312.869,402.704 316.035,405.537 319.5,408C 303.494,424.169 284.161,433.669 261.5,436.5C 261.451,433.901 260.451,431.734 258.5,430C 248.598,423.94 240.931,426.106 235.5,436.5C 213.609,432.916 194.943,423.249 179.5,407.5C 187.864,400.454 194.031,391.788 198,381.5C 201.302,372.617 204.136,363.617 206.5,354.5 Z"/></g>
<g><path style="opacity:1" fill="#d8e6fc" d="M 170.5,412.5 C 180.427,420.14 190.76,427.307 201.5,434C 212.696,440.288 224.696,443.954 237.5,445C 241.966,452.513 248.3,454.513 256.5,451C 258.543,449.292 260.21,447.292 261.5,445C 287.036,441.482 308.87,430.648 327,412.5C 340.439,419.403 354.606,424.236 369.5,427C 322.34,460.872 270.006,473.206 212.5,464C 181.506,458.163 153.506,445.83 128.5,427C 143.242,424.031 157.242,419.198 170.5,412.5 Z"/></g>
<g><path style="opacity:1" fill="#ccdaf5" d="M 247.5,434.5 C 254.968,435.674 256.301,439.174 251.5,445C 246.178,445.34 244.011,442.84 245,437.5C 246.045,436.627 246.878,435.627 247.5,434.5 Z"/></g>
</svg>
